<svg width="39" height="39" viewBox="0 0 39 39" fill="none" xmlns="http://www.w3.org/2000/svg">
<path d="M19.222 38.444C8.62509 38.444 0 29.8189 0 19.222C0 8.62509 8.62509 0 19.222 0C29.8189 0 38.444 8.62509 38.444 19.222C38.444 29.8189 29.8189 38.444 19.222 38.444ZM19.222 3.10032C10.3303 3.10032 3.10032 10.3303 3.10032 19.222C3.10032 28.1137 10.3303 35.3437 19.222 35.3437C28.1137 35.3437 35.3437 28.1137 35.3437 19.222C35.3437 10.3303 28.1137 3.10032 19.222 3.10032Z" fill="#FDFDFD"/>
<path d="M13.6424 17.3302C10.0088 17.3302 6.07761 16.7908 1.88597 15.6995C1.05509 15.4824 0.559034 14.6392 0.776056 13.8083C0.993079 12.9774 1.83637 12.4813 2.66725 12.6984C15.3662 15.9971 25.3058 13.9075 31.4072 6.66513C31.9591 6.01406 32.9388 5.92725 33.5899 6.47911C34.2471 7.03097 34.3277 8.01067 33.7759 8.66173C28.9332 14.4097 22.0877 17.3302 13.6424 17.3302Z" fill="#FDFDFD"/>
<path d="M5.89168 32.373C5.53204 32.373 5.17861 32.249 4.88718 32.001C4.23611 31.4429 4.1617 30.4632 4.71356 29.8122C13.7789 19.2153 25.5105 16.6978 36.9011 22.917C37.6514 23.3263 37.9304 24.2688 37.5212 25.0191C37.1119 25.7693 36.1694 26.0484 35.4191 25.6391C21.7405 18.1798 11.7885 26.315 7.0698 31.8336C6.76597 32.187 6.33193 32.373 5.89168 32.373Z" fill="#FDFDFD"/>
<path d="M24.3 37.6996C24.2442 37.6996 24.1884 37.6996 24.1326 37.6934C23.2831 37.6004 22.6693 36.8377 22.7623 35.982C23.9714 24.8953 21.1191 13.7155 14.2922 2.74041C13.8396 2.01493 14.0628 1.06004 14.7883 0.607389C15.5137 0.154742 16.4686 0.377965 16.9213 1.10344C24.1264 12.68 27.1275 24.5295 25.844 36.3231C25.751 37.1168 25.0813 37.6996 24.3 37.6996Z" fill="#FDFDFD"/>
</svg>
