<svg width="33" height="33" viewBox="0 0 33 33" fill="none" xmlns="http://www.w3.org/2000/svg">
<path d="M10.6739 16.0142C10.6739 13.0662 13.0624 10.6757 16.0096 10.6757C18.9568 10.6757 21.3466 13.0662 21.3466 16.0142C21.3466 18.9622 18.9568 21.3527 16.0096 21.3527C13.0624 21.3527 10.6739 18.9622 10.6739 16.0142ZM7.78886 16.0142C7.78886 20.5559 11.4693 24.2373 16.0096 24.2373C20.5499 24.2373 24.2303 20.5559 24.2303 16.0142C24.2303 11.4726 20.5499 7.79111 16.0096 7.79111C11.4693 7.79111 7.78886 11.4726 7.78886 16.0142ZM22.6346 7.46506C22.6345 7.84514 22.747 8.21673 22.958 8.53284C23.1689 8.84894 23.4689 9.09537 23.8199 9.24096C24.1709 9.38655 24.5571 9.42476 24.9298 9.35076C25.3025 9.27676 25.6449 9.09387 25.9137 8.82523C26.1825 8.55658 26.3656 8.21424 26.4399 7.84149C26.5141 7.46875 26.4763 7.08234 26.331 6.73114C26.1857 6.37993 25.9396 6.0797 25.6238 5.86842C25.3079 5.65713 24.9365 5.54428 24.5565 5.54412H24.5558C24.0465 5.54436 23.5581 5.7468 23.1979 6.10697C22.8376 6.46714 22.6351 6.9556 22.6346 7.46506ZM9.54172 29.0494C7.98085 28.9783 7.13247 28.7182 6.56868 28.4985C5.82122 28.2075 5.28791 27.8608 4.72719 27.3007C4.16647 26.7405 3.81938 26.2076 3.52967 25.4599C3.30989 24.8962 3.04989 24.0473 2.97894 22.486C2.90132 20.798 2.88583 20.2909 2.88583 16.0144C2.88583 11.7378 2.9026 11.2321 2.97894 9.54268C3.05002 7.98136 3.31194 7.13414 3.52967 6.56878C3.82066 5.82111 4.16723 5.28764 4.72719 4.72676C5.28714 4.16588 5.81994 3.81869 6.56868 3.52889C7.13221 3.30905 7.98085 3.04898 9.54172 2.978C11.2293 2.90037 11.7362 2.88487 16.0096 2.88487C20.283 2.88487 20.7905 2.90165 22.4794 2.978C24.0403 3.04911 24.8872 3.3111 25.4524 3.52889C26.1999 3.81869 26.7332 4.16664 27.2939 4.72676C27.8547 5.28687 28.2005 5.82111 28.4915 6.56878C28.7112 7.13248 28.9712 7.98136 29.0422 9.54268C29.1198 11.2321 29.1353 11.7378 29.1353 16.0144C29.1353 20.2909 29.1198 20.7966 29.0422 22.486C28.9711 24.0473 28.7098 24.896 28.4915 25.4599C28.2005 26.2076 27.8539 26.7411 27.2939 27.3007C26.734 27.8603 26.1999 28.2075 25.4524 28.4985C24.8889 28.7184 24.0403 28.9784 22.4794 29.0494C20.7919 29.1271 20.2849 29.1426 16.0096 29.1426C11.7343 29.1426 11.2287 29.1271 9.54172 29.0494ZM9.40916 0.0969821C7.70484 0.174619 6.54024 0.444939 5.52318 0.840811C4.46988 1.24962 3.57821 1.79808 2.68718 2.68796C1.79615 3.57783 1.24926 4.47117 0.840568 5.52478C0.444811 6.54277 0.174569 7.70707 0.0969541 9.41188C0.0180588 11.1194 0 11.6653 0 16.0142C0 20.3632 0.0180588 20.9091 0.0969541 22.6166C0.174569 24.3215 0.444811 25.4857 0.840568 26.5037C1.24926 27.5566 1.79628 28.451 2.68718 29.3405C3.57808 30.23 4.46988 30.7777 5.52318 31.1876C6.54216 31.5835 7.70484 31.8538 9.40916 31.9315C11.1171 32.0091 11.6619 32.0284 16.0096 32.0284C20.3573 32.0284 20.903 32.0104 22.61 31.9315C24.3145 31.8538 25.4783 31.5835 26.496 31.1876C27.5487 30.7777 28.441 30.2304 29.332 29.3405C30.2231 28.4506 30.7688 27.5566 31.1786 26.5037C31.5744 25.4857 31.8459 24.3214 31.9222 22.6166C31.9999 20.9078 32.0179 20.3632 32.0179 16.0142C32.0179 11.6653 31.9999 11.1194 31.9222 9.41188C31.8446 7.70694 31.5744 6.54213 31.1786 5.52478C30.7688 4.47181 30.2216 3.57924 29.332 2.68796C28.4424 1.79667 27.5487 1.24962 26.4973 0.840811C25.4783 0.444939 24.3144 0.173338 22.6113 0.0969821C20.9043 0.0193452 20.3586 0 16.0109 0C11.6632 0 11.1171 0.018064 9.40916 0.0969821Z" fill="#FDFDFD"/>
<path d="M10.6739 16.0142C10.6739 13.0662 13.0624 10.6757 16.0096 10.6757C18.9568 10.6757 21.3466 13.0662 21.3466 16.0142C21.3466 18.9622 18.9568 21.3527 16.0096 21.3527C13.0624 21.3527 10.6739 18.9622 10.6739 16.0142ZM7.78886 16.0142C7.78886 20.5559 11.4693 24.2373 16.0096 24.2373C20.5499 24.2373 24.2303 20.5559 24.2303 16.0142C24.2303 11.4726 20.5499 7.79111 16.0096 7.79111C11.4693 7.79111 7.78886 11.4726 7.78886 16.0142ZM22.6346 7.46506C22.6345 7.84514 22.747 8.21673 22.958 8.53284C23.1689 8.84894 23.4689 9.09537 23.8199 9.24096C24.1709 9.38655 24.5571 9.42476 24.9298 9.35076C25.3025 9.27676 25.6449 9.09387 25.9137 8.82523C26.1825 8.55658 26.3656 8.21424 26.4399 7.84149C26.5141 7.46875 26.4763 7.08234 26.331 6.73114C26.1857 6.37993 25.9396 6.0797 25.6238 5.86842C25.3079 5.65713 24.9365 5.54428 24.5565 5.54412H24.5558C24.0465 5.54436 23.5581 5.7468 23.1979 6.10697C22.8376 6.46714 22.6351 6.9556 22.6346 7.46506ZM9.54172 29.0494C7.98085 28.9783 7.13247 28.7182 6.56868 28.4985C5.82122 28.2075 5.28791 27.8608 4.72719 27.3007C4.16647 26.7405 3.81938 26.2076 3.52967 25.4599C3.30989 24.8962 3.04989 24.0473 2.97894 22.486C2.90132 20.798 2.88583 20.2909 2.88583 16.0144C2.88583 11.7378 2.9026 11.2321 2.97894 9.54268C3.05002 7.98136 3.31194 7.13414 3.52967 6.56878C3.82066 5.82111 4.16723 5.28764 4.72719 4.72676C5.28714 4.16588 5.81994 3.81869 6.56868 3.52889C7.13221 3.30905 7.98085 3.04898 9.54172 2.978C11.2293 2.90037 11.7362 2.88487 16.0096 2.88487C20.283 2.88487 20.7905 2.90165 22.4794 2.978C24.0403 3.04911 24.8872 3.3111 25.4524 3.52889C26.1999 3.81869 26.7332 4.16664 27.2939 4.72676C27.8547 5.28687 28.2005 5.82111 28.4915 6.56878C28.7112 7.13248 28.9712 7.98136 29.0422 9.54268C29.1198 11.2321 29.1353 11.7378 29.1353 16.0144C29.1353 20.2909 29.1198 20.7966 29.0422 22.486C28.9711 24.0473 28.7098 24.896 28.4915 25.4599C28.2005 26.2076 27.8539 26.7411 27.2939 27.3007C26.734 27.8603 26.1999 28.2075 25.4524 28.4985C24.8889 28.7184 24.0403 28.9784 22.4794 29.0494C20.7919 29.1271 20.2849 29.1426 16.0096 29.1426C11.7343 29.1426 11.2287 29.1271 9.54172 29.0494ZM9.40916 0.0969821C7.70484 0.174619 6.54024 0.444939 5.52318 0.840811C4.46988 1.24962 3.57821 1.79808 2.68718 2.68796C1.79615 3.57783 1.24926 4.47117 0.840568 5.52478C0.444811 6.54277 0.174569 7.70707 0.0969541 9.41188C0.0180588 11.1194 0 11.6653 0 16.0142C0 20.3632 0.0180588 20.9091 0.0969541 22.6166C0.174569 24.3215 0.444811 25.4857 0.840568 26.5037C1.24926 27.5566 1.79628 28.451 2.68718 29.3405C3.57808 30.23 4.46988 30.7777 5.52318 31.1876C6.54216 31.5835 7.70484 31.8538 9.40916 31.9315C11.1171 32.0091 11.6619 32.0284 16.0096 32.0284C20.3573 32.0284 20.903 32.0104 22.61 31.9315C24.3145 31.8538 25.4783 31.5835 26.496 31.1876C27.5487 30.7777 28.441 30.2304 29.332 29.3405C30.2231 28.4506 30.7688 27.5566 31.1786 26.5037C31.5744 25.4857 31.8459 24.3214 31.9222 22.6166C31.9999 20.9078 32.0179 20.3632 32.0179 16.0142C32.0179 11.6653 31.9999 11.1194 31.9222 9.41188C31.8446 7.70694 31.5744 6.54213 31.1786 5.52478C30.7688 4.47181 30.2216 3.57924 29.332 2.68796C28.4424 1.79667 27.5487 1.24962 26.4973 0.840811C25.4783 0.444939 24.3144 0.173338 22.6113 0.0969821C20.9043 0.0193452 20.3586 0 16.0109 0C11.6632 0 11.1171 0.018064 9.40916 0.0969821Z" fill="#FDFDFD"/>
</svg>
