<svg width="27" height="26" viewBox="0 0 27 26" fill="none" xmlns="http://www.w3.org/2000/svg">
<path d="M6.07965 25.6222V8.33391H0.338408V25.6222H6.08025H6.07965ZM3.21023 5.9739C5.2119 5.9739 6.45807 4.64637 6.45807 2.98733C6.42061 1.29048 5.2119 0 3.2483 0C1.28334 0 0 1.29048 0 2.98718C0 4.64622 1.24572 5.97375 3.17261 5.97375H3.20978L3.21023 5.9739ZM9.25751 25.6222H14.9983V15.9687C14.9983 15.4526 15.0358 14.9353 15.1874 14.5667C15.6023 13.5339 16.5469 12.4649 18.1333 12.4649C20.2102 12.4649 21.0415 14.0501 21.0415 16.3744V25.6222H26.7822V15.7096C26.7822 10.3996 23.9502 7.9286 20.173 7.9286C17.0763 7.9286 15.7162 9.661 14.9605 10.8409H14.9988V8.33451H9.25781C9.33274 9.95635 9.25736 25.6228 9.25736 25.6228L9.25751 25.6222Z" fill="#FDFDFD"/>
</svg>
